<?xml version="1.0" encoding="UTF-8" standalone="no"?>
<!-- Created with Inkscape (http://www.inkscape.org/) -->

<svg
   width="2358.6543"
   height="806.98438"
   viewBox="0 0 2358.6544 806.98438"
   version="1.1"
   id="svg1"
   xml:space="preserve"
   sodipodi:docname="original.svg"
   inkscape:version="1.4.4 (dcaf3e7d9e, 2026-05-05)"
   xmlns:inkscape="http://www.inkscape.org/namespaces/inkscape"
   xmlns:sodipodi="http://sodipodi.sourceforge.net/DTD/sodipodi-0.dtd"
   xmlns="http://www.w3.org/2000/svg"
   xmlns:svg="http://www.w3.org/2000/svg"><sodipodi:namedview
     id="namedview1"
     pagecolor="#ffffff"
     bordercolor="#000000"
     borderopacity="0.25"
     inkscape:showpageshadow="2"
     inkscape:pageopacity="0.0"
     inkscape:pagecheckerboard="0"
     inkscape:deskcolor="#d1d1d1"
     inkscape:document-units="px"
     showguides="true"
     inkscape:zoom="0.19353365"
     inkscape:cx="839.64726"
     inkscape:cy="1501.0309"
     inkscape:window-width="1142"
     inkscape:window-height="1246"
     inkscape:window-x="0"
     inkscape:window-y="0"
     inkscape:window-maximized="1"
     inkscape:current-layer="layer1"><sodipodi:guide
       position="424.65331,108.27269"
       orientation="0,-1"
       id="guide1"
       inkscape:locked="false" /></sodipodi:namedview><defs
     id="defs1" /><g
     inkscape:label="Ebene 1"
     inkscape:groupmode="layer"
     id="layer1"
     transform="translate(-26.602641,-148.196)"><path
       style="font-weight:bold;font-size:800.193px;font-family:'Source Serif 4';-inkscape-font-specification:'Source Serif 4 Bold';letter-spacing:-20.67px;stroke-width:450.215;stroke-linecap:square"
       d="m 995.52702,755.81798 q -49.4072,0 -94.48045,-18.20266 -44.20645,-18.20266 -78.87817,-55.47476 -34.67173,-37.27211 -55.47476,-93.61365 -19.93624,-56.34155 -19.93624,-131.75256 0,-74.54421 19.93624,-130.01896 20.80303,-56.34156 55.47476,-93.61367 34.67172,-37.2721 79.74496,-55.47476 45.07325,-19.06944 93.61366,-19.06944 48.54038,0 92.74688,18.20265 45.0732,18.20266 79.745,55.47476 34.6717,37.27211 54.6079,93.61366 20.803,56.34155 20.803,131.75256 0,74.54421 -20.803,130.88576 -19.9362,56.34154 -54.6079,93.61365 -34.6718,36.40531 -79.745,55.47476 -44.2065,18.20266 -92.74688,18.20266 z m 0,-22.53662 q 31.20458,0 52.87438,-19.06946 22.5366,-19.93623 36.4053,-56.34154 14.7355,-36.40532 20.8031,-87.54611 6.9343,-51.1408 6.9343,-112.6831 0,-62.40911 -6.9343,-112.68311 -6.0676,-51.1408 -20.8031,-87.5461 -13.8687,-36.40532 -36.4053,-56.34156 -21.6698,-19.93625 -52.87438,-19.93625 -31.20455,0 -53.74117,19.93625 -22.53663,19.06945 -37.27211,55.47476 -13.86869,36.40531 -20.80303,87.54611 -6.06755,50.274 -6.06755,111.81631 0,62.40911 6.06755,113.54989 6.93434,51.1408 20.80303,87.54612 14.73548,36.4053 37.27211,56.34154 22.53662,19.93625 53.74117,19.93625 z m 278.38678,8.66793 v -19.06945 l 73.6775,-12.13511 h 64.1426 l 80.6118,12.13511 v 19.06945 z m 44.2065,0 q 1.7336,-22.53663 2.6004,-53.74118 0.8668,-31.20454 0.8668,-65.00948 0.8668,-33.80493 0.8668,-62.40911 v -26.87058 q 0,-26.87059 0,-47.67362 0,-21.66983 -0.8668,-39.87249 0,-19.06945 -0.8668,-38.13889 l -50.274,-14.73548 v -15.60229 l 155.1559,-45.07323 12.1351,8.66793 v 112.68311 2.60037 104.01517 q 0,28.60418 0,62.40911 0.8668,33.80494 1.7336,65.00948 0.8668,31.20455 2.6004,53.74118 z m 115.2835,-238.36811 -13.0019,-40.73927 h 12.1351 q 13.8687,-44.20646 31.2045,-72.81063 18.2027,-28.60417 39.8725,-42.47286 22.5366,-14.73548 48.5404,-14.73548 26.8706,0 44.2064,13.86868 17.3359,13.0019 22.5367,42.47287 -1.7336,32.07134 -19.9363,46.80682 -17.3358,14.73548 -40.7392,14.73548 -19.0695,0 -35.5386,-9.53472 -15.6022,-9.53472 -28.6041,-33.80493 l -14.7355,-26.0038 23.4034,3.46719 q -19.0694,13.86868 -40.7393,46.80682 -20.803,32.93814 -28.6041,71.94383 z m 194.3079,238.36811 v -19.06945 l 73.6775,-12.13511 h 64.1426 l 70.2103,12.13511 v 19.06945 z m 44.2065,0 q 1.7336,-22.53663 2.6004,-53.74118 0.8668,-31.20454 0.8668,-65.00948 0.8668,-33.80493 0.8668,-62.40911 v -26.00379 q 0,-40.73928 0,-69.34345 0,-28.60417 -1.7336,-57.20834 l -50.274,-14.73548 v -15.60229 l 158.6231,-45.07323 12.1351,8.66793 -3.4672,114.41669 v 104.88196 q 0,28.60418 0,62.40911 0.8668,33.80494 1.7336,65.00948 0.8668,31.20455 2.6004,53.74118 z m 61.5423,-475.00263 q -25.137,0 -43.3397,-15.60227 -17.3358,-16.46908 -17.3358,-44.20646 0,-26.0038 17.3358,-42.47286 18.2027,-16.46907 43.3397,-16.46907 25.137,0 42.4729,16.46907 18.2026,16.46906 18.2026,42.47286 0,26.87059 -18.2026,43.33965 -17.3359,16.46908 -42.4729,16.46908 z m 282.7201,688.23374 q -65.0095,0 -103.1484,-12.13511 -37.2721,-12.1351 -52.8743,-32.93814 -15.6023,-20.80303 -15.6023,-46.80682 0,-26.87059 17.3358,-45.07325 18.2027,-17.33586 45.0733,-28.60418 27.7374,-10.40151 57.2083,-19.06944 l 3.4672,3.46717 q -14.7355,11.26831 -26.0038,22.53663 -10.4015,11.26831 -16.4691,24.2702 -6.0675,13.0019 -6.0675,32.93815 0,22.53661 10.4015,40.73927 11.2683,18.20265 33.8049,28.60418 22.5366,10.40151 58.0752,10.40151 44.2064,0 74.5442,-13.00189 30.3377,-13.00191 45.0732,-33.80494 15.6023,-20.80303 15.6023,-45.94004 0,-30.33775 -20.8031,-44.20644 -19.9362,-13.8687 -59.8087,-13.8687 h -88.4129 q -7.8011,0 -17.3358,-0.86679 -8.668,0 -17.3359,-1.73359 l -2.6004,-0.86679 q -34.6717,-4.33397 -61.5423,-25.137 -26.8706,-20.80303 -26.8706,-59.80872 0,-39.00569 25.137,-67.60987 25.137,-28.60417 59.8088,-52.00759 v -8.66793 l 13.8687,19.06945 q -12.1352,7.80114 -21.6699,21.66983 -9.5347,13.0019 -9.5347,32.07134 0,19.93625 15.6023,29.47098 15.6023,9.53472 46.8068,9.53472 h 108.3491 q 47.6736,0 78.8782,13.86869 32.0713,13.86868 47.6736,39.00569 16.4691,25.137 16.4691,62.40911 0,30.33775 -13.8687,58.94192 -13.8687,29.47097 -42.4729,52.00759 -27.7374,23.40342 -71.077,37.27211 -42.4729,13.86869 -99.6812,13.86869 z m 13.0019,-346.71725 q -52.0076,0 -88.4129,-17.33586 -35.5385,-18.20266 -53.7412,-49.40721 -18.2026,-32.07135 -18.2026,-72.81062 0,-40.73928 19.0694,-71.07704 19.9363,-31.20456 56.3416,-47.67362 36.4053,-17.33586 84.9457,-17.33586 33.8049,0 59.8087,6.93434 26.8706,6.93434 45.94,20.80303 19.9363,13.0019 32.0714,31.20456 l 2.6004,4.33397 q 10.4015,15.60227 15.6022,34.67172 5.2008,18.20265 5.2008,40.73928 0,40.73927 -19.9362,71.94382 -19.9363,30.33776 -56.3416,47.67363 -36.4053,17.33586 -84.9457,17.33586 z m 0,-21.66984 q 17.3359,0 29.471,-11.26831 12.1351,-11.2683 19.0694,-37.27209 6.9343,-26.0038 6.9343,-68.47666 0,-43.33966 -6.9343,-68.47666 -6.9343,-25.137 -19.0694,-36.40531 -12.1351,-11.26831 -29.471,-11.26831 -16.4691,0 -29.471,11.26831 -12.1351,11.26831 -19.0694,37.27211 -6.0676,25.13699 -6.0676,68.47665 0,42.47286 6.0676,68.47666 6.9343,25.137 19.0694,36.4053 13.0019,11.26831 29.471,11.26831 z m 123.0846,-175.95899 -5.2008,-19.06945 h 3.4672 l 97.0808,-58.94193 8.668,6.93434 v 71.07704 z m 178.3144,340.64969 q -26.0038,0 -45.0732,-19.06944 -19.0695,-19.06946 -19.0695,-45.94004 0,-26.87058 19.0695,-45.94004 19.0694,-19.06945 45.0732,-19.06945 27.7374,0 45.94,19.06945 19.0695,19.06946 19.0695,45.94004 0,26.87058 -19.0695,45.94004 -18.2026,19.06944 -45.94,19.06944 z"
       id="text1"
       aria-label="Orig." /><g
       style="fill:currentColor"
       id="g1"
       transform="matrix(33.035756,0,0,33.035756,-72.504627,127.05985)"><path
         d="m 21,1.99669 c -15,0 -17,14.00001 -18,20.00001 0.66667,0 1.33275,0 1.99824,0 0.66597,-3.3331 2.33322,-5.1664 5.00176,-5.5 4,-0.5 7,-4 8,-7.00001 l -1.5,-1 c 0.3333,-0.33333 0.6667,-0.66667 1,-1 1,-1 2.0042,-2.5 3.5,-5.5 z"
         id="path1" /></g></g></svg>
